Coordinates
version=1
nRows=8
nColumns=40
inDegrees=yes

Units are S.I. units (second, meters, Newtons, ...)
Angles are in degrees.

endheader
time	pelvis_tilt	pelvis_list	pelvis_rotation	pelvis_tx	pelvis_ty	pelvis_tz	hip_flexion_r	hip_adduction_r	hip_rotation_r	knee_angle_r	knee_angle_r_beta	ankle_angle_r	subtalar_angle_r	mtp_angle_r	hip_flexion_l	hip_adduction_l	hip_rotation_l	knee_angle_l	knee_angle_l_beta	ankle_angle_l	subtalar_angle_l	mtp_angle_l	lumbar_extension	lumbar_bending	lumbar_rotation	arm_flex_r	arm_add_r	arm_rot_r	elbow_flex_r	pro_sup_r	wrist_flex_r	wrist_dev_r	arm_flex_l	arm_add_l	arm_rot_l	elbow_flex_l	pro_sup_l	wrist_flex_l	wrist_dev_l
      0.71000000	     -2.56390800	      3.29708736	     -1.25890124	     -0.01862641	      0.96147320	      1.03376432	     22.21331430	    -14.84655678	    -19.00129324	    -56.01944070	     -0.97772369	      0.06032020	    -16.37663525	     17.15811059	      4.20413403	     -5.25727111	     12.97322626	    -13.69115226	     -0.23895569	      5.28811156	      6.93052035	     -3.57055812	     -0.54193975	     -5.19910555	     -2.77535269	      1.24719102	    -11.40328219	     -7.24912746	     25.63094869	     89.95437384	      0.00000000	      0.00000000	     -1.22527002	     13.46068800	      6.70951927	     19.66292860	     89.95437384	      0.00000000	      0.00000000
      0.72000000	     -2.98542998	      3.26163813	     -0.82268808	     -0.00673565	      0.96036818	      1.03276247	     23.92755402	    -14.70900732	    -19.21353620	    -54.35510333	     -0.94867552	      0.41263018	    -15.68764523	     16.63780507	      3.71870457	     -5.28601360	     13.10404618	    -13.42951662	     -0.23438928	      5.69269117	      6.67035848	     -3.60499827	     -0.30205145	     -5.08849027	     -3.30444378	      0.33514006	    -11.41084777	     -6.76567970	     24.75156056	     89.95437384	      0.00000000	      0.00000000	      0.23885057	     13.25662942	      6.49726641	     21.00753322	     89.95437384	      0.00000000	      0.00000000
      0.73000000	     -3.20645950	      2.83871604	     -0.27280608	      0.00503599	      0.95952732	      1.03207506	     25.14632904	    -14.02019196	    -19.42495179	    -52.14008480	     -0.91001615	      0.60489959	    -15.06759138	     16.34892476	      2.82774185	     -4.93750549	     12.31198873	    -12.82993723	     -0.22392465	      6.14943180	      6.26394591	     -3.77448124	     -0.31724895	     -4.58138640	     -4.14119258	     -0.05175907	    -11.40839895	     -6.00032207	     23.14485719	     89.95437384	      0.00000000	      0.00000000	      1.41783950	     13.21131890	      5.84113913	     22.76032391	     89.95437384	      0.00000000	      0.00000000
      0.74000000	     -2.84013677	      2.48541197	      0.40269352	      0.01773272	      0.95931752	      1.03125592	     25.37992556	    -13.66204239	    -20.22383269	    -49.55013481	     -0.86481300	      0.91980384	    -14.25144839	     16.04534462	      1.29766465	     -4.59272899	     12.08062421	    -12.28218953	     -0.21436465	      6.52960581	      5.93984887	     -4.13491221	     -0.95148753	     -4.16156197	     -5.03578635	     -0.76918499	    -11.43802320	     -5.50938860	     22.24042210	     89.95437384	      0.00000000	      0.00000000	      2.51729324	     13.29519030	      4.94881018	     24.87137439	     89.95437384	      0.00000000	      0.00000000
      0.75000000	     -2.89941410	      2.29780894	      0.91158031	      0.02999651	      0.95817059	      1.03067631	     26.20701287	    -13.34221106	    -20.46423710	    -46.92288946	     -0.81895892	      1.17797259	    -13.31617566	     15.68509962	      0.32687735	     -4.38064180	     11.98493574	    -11.90659511	     -0.20780929	      6.86205453	      5.33044785	     -4.56039381	     -1.11653861	     -3.92339687	     -5.72031086	     -1.45320851	    -11.40541780	     -5.40198047	     21.19320878	     89.95437384	      0.00000000	      0.00000000	      3.62912140	     13.34392277	      4.37847376	     26.87713779	     89.95437384	      0.00000000	      0.00000000
      0.76000000	     -3.19491696	      2.21620596	      1.35822658	      0.04214535	      0.95632223	      1.03027148	     27.29832165	    -13.12411597	    -20.60549525	    -44.18273242	     -0.77113415	      1.29525081	    -12.47826047	     15.42422038	     -0.38696999	     -4.29097447	     11.84686620	    -11.53075372	     -0.20124962	      7.30052714	      4.82840228	     -4.80210933	     -1.00143311	     -3.79912565	     -6.35336336	     -2.20370100	    -11.39657436	     -5.23071612	     20.28900956	     89.95437384	      0.00000000	      0.00000000	      4.65618325	     13.43373342	      3.88162326	     28.92906311	     89.95437384	      0.00000000	      0.00000000
      0.77000000	     -2.92232217	      2.02355193	      1.95969992	      0.05485056	      0.95519799	      1.02990825	     27.40168640	    -12.87326568	    -21.09778305	    -41.01855468	     -0.71590883	      1.47697736	    -11.51336630	     15.05326011	     -1.71594851	     -3.97779708	     11.90579765	    -11.21655464	     -0.19576581	      7.59804274	      4.05704087	     -5.27455643	     -1.50320263	     -3.57594717	     -7.12845317	     -2.89074286	    -11.34573278	     -5.39157884	     19.36632056	     89.95437384	      0.00000000	      0.00000000	      5.55225702	     13.76021615	      2.80654952	     31.32993921	     89.95437384	      0.00000000	      0.00000000
      0.78000000	     -2.76688686	      1.89274248	      2.42266496	      0.06756619	      0.95370557	      1.02988613	     27.60540877	    -12.62352514	    -21.42786746	    -37.75606713	     -0.65896768	      1.57686047	    -10.49137810	     14.73342703	     -2.91802548	     -3.70334449	     12.16965846	    -10.87960917	     -0.18988500	      7.82651891	      3.14405008	     -5.90035046	     -1.87249934	     -3.42547336	     -7.75199070	     -3.62591098	    -11.29652992	     -5.77233835	     18.57423034	     89.95437384	      0.00000000	      0.00000000	      6.50220094	     14.03775903	      2.12950850	     33.59746523	     89.95437384	      0.00000000	      0.00000000
